<svg width="46" height="46" viewBox="0 0 46 46" fill="none" xmlns="http://www.w3.org/2000/svg">
<g clip-path="url(#clip0_2_1854)">
<path fill-rule="evenodd" clip-rule="evenodd" d="M22.9991 46C10.2975 46 0 35.7027 0 23C0 10.298 10.2975 0 22.9991 0C24.55 0 26.0647 0.156508 27.5303 0.447781C28.221 0.552359 28.7502 1.14407 28.7502 1.86282C28.7502 2.6574 28.1073 3.30104 27.3127 3.30104C27.2173 3.30104 27.126 3.29125 27.0361 3.27301L27.0347 3.28145C25.7305 3.01543 24.3815 2.87509 22.9991 2.87509C16.5073 2.87509 10.7482 5.96212 7.06882 10.7345L15.1132 34.9931C15.1147 34.9951 15.1147 34.9903 15.116 34.9951C15.1469 35.1144 15.2101 35.2289 15.3049 35.3236C15.5849 35.6044 16.0398 35.6044 16.3206 35.3236C16.4027 35.2415 16.4603 35.1446 16.4947 35.0414C16.4947 35.04 16.4961 35.0414 16.4961 35.04L18.7366 28.2833C18.943 27.7175 19.4779 27.3131 20.1144 27.3131C20.9265 27.3131 21.5842 27.9709 21.5842 28.783C21.5842 28.9844 21.542 29.176 21.4698 29.3522L21.4796 29.3564L18.5316 38.2491C18.3961 38.6583 18.1708 39.0388 17.8451 39.3624C16.7235 40.4862 14.902 40.4862 13.7804 39.3624C13.4645 39.0465 13.2434 38.6794 13.1045 38.2814L5.03961 13.955C3.6667 16.6771 2.875 19.7424 2.875 23C2.875 34.115 11.8845 43.1249 22.9991 43.1249C34.114 43.1249 43.125 34.115 43.125 23C43.125 19.2075 42.0511 15.6811 40.2205 12.6522C40.0886 11.9945 39.5089 11.5004 38.8126 11.5004C38.0195 11.5004 37.3736 12.1433 37.3736 12.9379C37.3736 13.6714 38.7452 19.1885 38.1767 22.3297L32.8941 38.2865C32.7551 38.6823 32.5348 39.0488 32.2203 39.3626C31.0987 40.4864 29.2765 40.4864 28.1535 39.3626C27.8349 39.0439 27.6117 38.6662 27.4741 38.2634L23.0013 24.7682L22.9992 24.7732L21.4487 20.0976L21.4501 20.0941L18.7478 11.9398C18.4958 11.1811 18.9183 10.3668 19.6919 10.1204C20.4674 9.8741 21.2971 10.2896 21.549 11.047L29.4885 34.9932C29.49 34.9952 29.49 34.9904 29.4913 34.9952C29.5222 35.1145 29.5854 35.229 29.678 35.3237C29.9602 35.6045 30.415 35.6045 30.6957 35.3237C30.7771 35.2416 30.8361 35.1447 30.8699 35.0415C30.8699 35.0401 30.8713 35.0436 30.8713 35.0415L35.2007 21.9639C35.6626 19.569 34.4988 15.1005 34.4988 12.8922C34.4988 10.5358 36.4108 8.62455 38.7664 8.62455C40.3526 8.62455 41.7185 9.4999 42.4541 10.7809H42.4822C44.7071 14.3221 46 18.5084 46 23C46 35.7027 35.7032 46 22.9991 46ZM33.0626 5.74946C32.268 5.74946 31.6251 5.10582 31.6251 4.31124C31.6251 3.51873 32.268 2.87509 33.0626 2.87509C33.8557 2.87509 34.4986 3.51873 34.4986 4.31124C34.4986 5.10582 33.8557 5.74946 33.0626 5.74946Z" fill="#214A99"/>
</g>
<defs>
<clipPath id="clip0_2_1854">
<rect width="46" height="46" fill="white"/>
</clipPath>
</defs>
</svg>
